<?xml version="1.0" encoding="UTF-8" standalone="no"?>
<!-- Created with Inkscape (http://www.inkscape.org/) -->

<svg
   width="67.73333mm"
   height="67.73333mm"
   viewBox="0 0 67.73333 67.73333"
   version="1.1"
   id="svg5"
   preserveAspectRatio="none"
   xmlns="http://www.w3.org/2000/svg"
   xmlns:svg="http://www.w3.org/2000/svg">
  <defs
     id="defs2" />
  <g
     id="layer1"
     transform="translate(-28.11268,-88.857637)">
    <path
       id="path538"
       style="fill:#ffffff;stroke-width:1.2;stroke-linecap:round;stroke-linejoin:round;paint-order:fill markers stroke;stop-color:#000000"
       d="m 85.701297,140.97703 c -1.67484,1.59348 -4.046245,3.5558 -6.168895,3.70822 3.08868,-0.64877 -4.666226,1.90685 -3.100826,-1.38563 3.933956,2.37271 -0.69589,4.60078 -2.417195,6.54893 -1.98084,2.61027 -4.52243,1.05421 -7.543275,2.2308 -1.27608,1.19667 3.734285,2.56978 0.694255,1.00121 -2.59629,-0.52688 -2.929045,-6.09324 -2.7106,-5.74879 -0.697319,1.18686 -1.995169,6.69962 0.52533,4.4167 0.73,-3.96665 -5.4542,-3.9234 -8.151742,-4.26441 -1.96224,0.21645 -3.250462,0.63056 -2.462552,2.38316 -0.611433,1.95454 -4.303607,5.53651 -2.520539,6.72375 1.249556,-3.72049 -1.359023,-8.51271 -3.5448,-11.67151 -0.161479,3.7777 4.781914,2.5817 3.032935,-0.85977 -0.186559,-2.24589 -4.634325,-7.11757 -4.403672,-2.53867 0.02264,3.72726 -6.742746,8.18498 -6.525281,2.2434 -0.542962,-2.77064 -2.133615,-7.25518 -5.490178,-5.81196 0.285586,-1.7961 3.034786,-6.79306 -0.894363,-5.16452 -4.873403,1.13091 -2.426444,-6.02895 -5.732678,-7.30497 -1.22673,-2.69285 4.453477,-2.2188 3.352906,-4.56508 -2.925328,3.10183 0.736083,7.508 4.312425,6.66003 1.73604,-0.11478 4.768837,-0.51315 5.397067,-2.01454 -4.156463,1.23305 -5.353702,-3.50304 -3.707979,-6.46936 0.02559,-1.589 -2.596193,-5.01703 -2.500489,-4.62421 1.173854,2.49668 -3.036381,4.2773 -2.318874,0.73906 1.383471,-4.41522 6.889518,-2.11264 9.834034,-4.01671 -1.056939,-2.21274 -0.501114,-3.83419 1.304168,-5.29564 0.739795,-3.03767 -3.267961,-1.97633 -3.265062,-4.75974 -2.248541,-1.41362 -3.70216,-7.554392 -0.10905,-7.196044 2.94921,2.121095 4.110796,5.898154 5.063338,9.290084 5.5e-4,1.69237 -2.506143,-0.41222 -0.133654,-0.27907 3.71654,-1.12607 7.848418,-0.43586 11.420025,-1.84265 2.1563,-1.689307 5.835433,-7.00454 1.408991,-8.145322 -1.828182,-1.117498 -4.021307,1.004786 -1.379338,1.824474 4.287965,1.889202 8.966412,0.08215 13.424577,0.151547 3.307865,-0.05247 -2.724975,0.966325 -3.57363,1.857405 -1.4103,0.777429 -6.361178,3.016741 -2.32285,2.359374 3.740435,0.554871 7.435245,1.492512 11.2421,1.476682 1.904561,0.66788 -2.751495,-0.53727 -2.84702,-1.998782 -2.371475,-2.906135 -3.43087,-7.064256 -6.70072,-9.092043 -2.940587,0.669878 2.03674,-1.633982 3.23188,-0.212109 4.893625,1.867251 10.032536,3.593761 14.097866,7.094411 -3.66786,-0.636865 -4.49633,4.753883 -0.74979,4.749613 3.812715,0.45184 2.23705,5.33484 1.210345,7.70156 2.232165,-0.58051 7.83213,-3.19053 9.08443,0.10938 -1.69508,2.26048 -6.7167,-2.96375 -2.685955,-0.27335 2.28756,0.99876 3.86408,4.47015 0.70414,5.03999 -0.80734,1.09608 -2.177175,3.72231 -1.219835,0.74127 0.131325,-3.06691 2.296545,-9.14167 5.984745,-5.72135 -0.50555,1.65018 -4.505085,2.86803 -5.82678,5.08015 -3.217035,3.29734 -5.95898,7.1566 -7.962345,11.33233 -1.6675,4.84012 5.511385,6.39969 6.39213,1.53611 0.4999,-4.06356 6.71928,-6.07117 7.29197,-1.04706 -0.034,3.38169 -3.093345,5.9821 -5.805975,7.41637 -2.528735,0.62283 -2.427335,6.14635 -4.35799,8.53445 -1.24116,2.83651 -0.172545,0.10253 0.124275,-0.64717 z" />
  </g>
</svg>
