<?xml version="1.0" encoding="UTF-8" standalone="no"?>
<!-- Created with Inkscape (http://www.inkscape.org/) -->

<svg
   width="66.529663mm"
   height="66.535484mm"
   viewBox="0 0 66.529663 66.535484"
   version="1.1"
   id="svg5"
   preserveAspectRatio="none"
   xmlns="http://www.w3.org/2000/svg"
   xmlns:svg="http://www.w3.org/2000/svg">
  <defs
     id="defs2" />
  <g
     id="layer1"
     transform="translate(-16.233668,-34.221036)">
    <path
       style="fill:#ffffff;stroke:none;stroke-width:1.2;stroke-linecap:round;stroke-linejoin:round;stroke-dasharray:none;paint-order:fill markers stroke;stop-color:#000000"
       id="path978"
       d="m 20.839658,56.232672 c 0.50091,0.57854 5.321194,7.786657 7.976795,5.614659 0.85841,-0.70209 -2.010597,-1.346435 -2.278641,-2.496953 -0.138683,-0.595258 1.055752,-0.368135 1.546037,-0.647555 4.886131,-2.784676 -0.01326,-2.165448 9.332169,0.391548 5.27531,2.935936 3.278284,3.222062 8.721276,1.045519 0.290944,-0.116343 -0.616845,0.04246 -0.925267,0.0637 1.029844,1.064331 1.690612,3.307014 3.089531,3.192988 1.764428,-0.143819 2.727655,-2.518876 4.091481,-3.778315 2.297955,-0.180573 4.595907,-0.361147 6.893861,-0.541718 -1.566538,-0.173614 2.987232,-3.97863 3.170687,-2.539837 0.195735,1.535107 -2.009803,3.186549 -1.207677,4.451722 0.670633,1.057769 2.416947,-0.303274 3.341182,-1.086605 0.928448,-0.786906 1.541587,-2.058642 1.851182,-3.314162 1.192068,-4.834298 1.736953,-9.839387 2.605426,-14.759079 -0.733547,-0.141256 -1.511538,-0.738296 -2.200655,-0.423769 -0.589357,0.268997 -0.810595,1.161123 -0.940808,1.857604 -1.017611,5.443014 -2.51896,10.889061 -2.481836,16.449481 0.0067,0.999395 1.764329,1.117733 2.59669,0.752562 1.044286,-0.458148 1.820394,-1.670914 2.192678,-2.853737 1.464855,-4.654184 2.149269,-9.570657 3.223904,-14.355985 -0.265152,-1.068809 0.104334,-3.674166 -0.795459,-3.206427 -1.095315,0.569375 -0.516373,2.640385 -0.686914,3.977007 -0.684048,5.36116 -2.243275,10.710487 -1.876085,16.110315 0.108329,1.593047 1.794322,3.551626 3.189452,3.203794 1.686813,-0.420549 2.469483,-2.896615 2.980228,-4.742 1.451324,-5.243786 1.870866,-10.776915 2.806298,-16.165371 -0.473388,-0.863027 -0.561354,-2.910646 -1.420155,-2.589083 -1.104719,0.413638 -1.092721,2.339454 -1.322542,3.616034 -3.045981,16.919169 -6.521794,14.569633 0.801882,15.817078 0.763928,0.13012 1.629583,0.896305 2.284813,0.438443 1.701903,-1.189276 2.7444,-3.274457 4.116594,-4.911685 -0.157871,-4.123928 -0.111378,-8.263988 -0.473626,-12.371785 -0.02337,-0.264951 -0.552371,0.208306 -0.575633,0.473268 -0.04752,0.54137 0.868399,1.439135 0.396152,1.570695 -2.834349,0.789603 -5.841832,0.321412 -8.737264,0.752997 -0.753792,0.112359 -1.448483,1.21073 -2.144799,0.869053 -1.2024,-0.590011 -1.782614,-2.155715 -2.673918,-3.233572 -8.047001,-3.068098 -3.444316,-3.059212 -4.03195,3.022428 -0.261352,2.704814 -1.842941,5.139345 -1.981183,7.855497 -0.09243,1.816013 1.514719,7.060589 1.313868,5.255547 -1.22773,-11.033552 -0.585381,-8.31917 -6.523439,-15.368313 -0.880285,0.992337 -2.89972,1.609879 -2.640856,2.977011 0.249983,1.32025 2.2952,0.83886 3.442798,1.258291 0.161857,5.332393 1.576688,10.802962 0.485567,15.997177 -0.298336,1.420221 -3.263743,1.55999 -3.907056,0.290649 -2.388868,-14.390083 0.263143,-8.732802 -6.196805,-17.864685 -0.993816,0.07448 -2.189307,-0.45148 -2.981447,0.223428 -0.945709,0.805749 -1.266328,2.309687 -1.516669,3.608994 -0.807269,4.189841 -1.700827,8.442609 -1.630983,12.727791 0.02206,1.354492 0.777378,2.94427 1.89497,3.468643 0.794464,0.372765 -0.484295,-1.866153 -0.529292,-2.827869 -0.171941,-3.674813 -0.07967,-7.359131 -0.119513,-11.038696 -1.962481,-1.402076 -5.692125,-4.765134 -7.577685,-1.047456 -0.437488,0.862579 -0.08103,2.100133 -0.611246,2.895082 -0.369596,0.554127 -1.172708,0.439113 -1.759062,0.658669 -0.453411,1.049645 -0.90682,2.099292 -1.360229,3.148937 0.141642,-0.762497 -0.194954,-1.931895 0.424927,-2.287493 1.221852,-0.700923 2.842645,0.275613 4.110564,-0.314316 0.407834,-0.189752 -0.04163,-1.122838 -0.399478,-1.412348 -0.547227,-0.442727 -1.299463,-0.49445 -1.97489,-0.508598 -6.562025,-0.13745 -5.014289,-1.273488 -7.465337,2.900258 -1.184312,22.423861 -1.045191,3.462179 -0.551982,2.715399 1.266174,-1.917155 3.754482,-2.267446 5.696859,-3.249858 0.09123,-0.04614 0.202849,0.244572 0.120178,0.307733 -0.176251,0.134658 -0.463266,-0.05429 -0.635821,0.08622 -2.592743,2.111341 -5.060252,4.4084 -7.590378,6.612597 -2.694194,1.262881 -0.301144,1.000996 -0.307847,0.731606 -0.01359,-0.546162 -3.382943,-10.373315 2.910091,-6.122994 9.434139,6.37182 5.320547,9.532595 1.937511,14.622406 5.360871,2.330727 0.788357,1.330872 6.694739,-0.819558 1.710868,-0.622902 4.662331,0.765691 5.305485,-1.11256 1.329312,-3.882089 1.729159,-15.631719 -0.662019,-12.448106 -7.677342,10.221616 -2.351265,15.70907 1.873331,22.529292 3.285123,-2.725965 7.789174,-4.230817 9.855366,-8.177889 1.998924,-3.818574 2.087273,-8.84662 1.329625,-13.188959 -0.341604,-1.957852 -2.694373,-2.668943 -4.262632,-3.621089 -0.57732,-0.350514 -1.787593,-0.867199 -1.965766,-0.160401 -1.29376,5.132282 -2.412156,10.530465 -1.987136,15.841362 0.208937,2.610774 2.523572,4.418955 3.785356,6.628433 3.59578,-1.313635 7.515579,-1.818311 10.787343,-3.940907 1.058806,-0.686913 1.316659,-2.497416 1.241872,-3.863186 -0.310443,-5.669213 -0.487295,-11.558039 -2.375089,-16.831411 -0.444019,-1.240319 -2.457719,-0.262744 -3.581659,0.191807 -1.782337,0.720821 -4.647129,1.135529 -4.894018,3.235973 -0.677942,5.767632 1.659052,11.485667 2.48858,17.228498 2.640225,-1.852433 5.974927,2.690965 8.636014,1.38043 7.490857,-3.689104 8.369511,-11.459751 4.274341,-20.103483 -0.904237,-1.908587 -5.09107,-2.212397 -5.793999,-0.200715 -1.752976,5.016786 0.146017,10.770371 0.219023,16.155557 1.169068,1.29487 1.908592,3.446909 3.507199,3.88461 1.340671,0.36708 3.081745,-0.558647 3.780218,-1.889305 2.364997,-4.505561 4.44504,-9.479416 4.915335,-14.676618 0.130395,-1.441047 -2.106152,-1.973815 -3.395836,-2.115446 -2.236524,-0.245609 -5.496687,-1.125731 -6.681194,1.008806 -1.869448,3.368843 -0.314417,7.920619 -0.471626,11.880928 1.387438,1.049854 2.566271,2.57972 4.162312,3.149559 7.301529,2.606888 12.829105,-0.07988 5.115627,-13.184396 -2.281132,-3.875436 -8.564512,-1.086408 -10.156723,1.81642 -0.96635,1.761799 -1.211523,3.904917 -1.817286,5.857375 1.693233,2.438196 2.624965,5.900765 5.079703,7.314591 3.238026,1.864962 10.865441,0.726073 10.188194,-5.682058 -0.726928,-6.878228 -9.509709,-12.981914 -14.226829,-14.32854 -1.744679,-0.498064 -3.366925,1.428617 -5.050391,2.142925 -1.239384,0.683837 -3.030019,0.711739 -3.718151,2.051511 -2.690037,5.237427 6.336842,17.300019 6.690525,17.758182 0.564017,0.730637 2.47588,0.518814 2.559861,-0.44161 1.453611,-16.623614 0.679589,-13.584653 -10.002055,-16.262768 -1.393334,-0.12603 -3.107088,-1.379633 -4.179994,-0.378099 -1.177623,1.099284 -1.053038,3.361878 -0.834844,5.059334 0.640005,4.979002 0.326974,10.902144 3.363743,14.614538 1.573577,1.92367 5.831726,0.08758 6.674775,-2.342624 4.005489,-11.546437 -3.593589,-13.780542 -9.600949,-18.0678 1.063438,-0.736184 -6.530687,0.0995 -5.76548,2.202182 0.664585,1.826184 3.051772,2.269256 3.899416,3.998168 1.430586,2.917926 1.312591,6.576159 2.721847,9.507025 0.346124,0.719847 1.149278,-1.631126 0.739655,-2.308051 -2.165455,-3.578524 -5.257386,-6.334517 -7.886079,-9.501773 -1.013985,-0.460894 -1.965497,-1.160689 -3.041955,-1.382686 -0.751599,-0.155001 -1.625327,-0.157959 -2.278595,0.285431 -0.926089,0.628563 -1.053507,3.530597 -0.08471,4.121068 1.709639,1.042004 7.046808,3.055316 5.686029,1.498439 -1.581029,-1.808866 -4.298514,-1.579967 -6.44777,-2.369952 -0.552692,-0.472833 -1.033756,-1.074612 -1.658071,-1.418501 -0.130244,-0.07174 -0.467241,0.322797 -0.322108,0.327764 0.956369,0.03273 1.975411,0.160333 2.862353,-0.24084 0.34388,-0.155539 -0.616838,-0.755087 -0.966525,-0.616663 -0.544267,0.215448 -0.763445,0.968385 -1.145167,1.452578 -1.629111,0.399578 -3.258224,0.799159 -4.887335,1.198734 -0.824451,0.766647 -1.848437,3.274122 -2.473352,2.299942 -0.6636,-1.034481 1.230007,-2.146464 1.924858,-3.154986 0.09222,-0.133846 0.256564,-0.197387 0.405347,-0.22712 1.026269,-0.205091 2.075679,-0.696752 3.098849,-0.473163 0.346016,0.07561 0.31376,0.850498 0.114094,1.175274 -0.19284,0.313673 -0.663433,0.171904 -0.99515,0.257853 -2.166787,0.997993 -4.333573,1.995986 -6.500359,2.993979 -0.115977,0.01911 -0.280896,-0.05018 -0.34793,0.0573 -2.028314,3.252454 -2.061989,5.201749 0.242157,9.748698 0.459381,0.906537 1.796407,0.557099 2.694612,0.835652 0.676306,1.486288 1.352611,2.972584 2.028917,4.458872 1.660221,1.557841 2.953284,3.815895 4.98066,4.673513 4.220951,1.785542 13.874067,-1.994366 15.163033,-6.272942 1.542989,-5.121771 -0.894202,-10.854719 -2.404356,-15.988698 -0.469775,-1.597066 -1.87806,-3.952802 -3.307785,-3.430528 -3.626838,1.324869 -5.992233,5.281506 -8.988351,7.922258 1.177367,6.272927 -0.662893,20.340584 8.85207,20.36293 2.235858,0.0054 4.220774,-1.665332 6.26639,-2.674065 3.185069,-1.570613 8.038221,-1.482684 9.412666,-5.057574 5.847876,-15.210141 1.744155,-14.837922 -3.714167,-15.356496 -1.628784,4.444077 -4.292707,8.575796 -4.886347,13.332234 -0.191069,1.530924 1.441297,3.10899 2.794606,3.427517 2.688046,0.632689 5.998789,0.98843 8.206831,-0.838083 5.294615,-4.379754 3.736338,-12.979547 -0.729641,-16.816019 -1.517656,-1.303736 -3.825624,-0.159004 -5.738435,-0.238509 -0.01345,4.888159 -0.840858,9.85887 -0.04035,14.664472 0.179859,1.07973 1.751604,1.039142 2.702407,1.316437 2.686752,0.783571 7.941858,-0.188073 8.966801,-3.215986 3.818357,-11.28029 1.000283,-11.068133 -3.566074,-12.117976 -9.252587,21.055148 -8.41239,8.930936 -2.615581,13.261101 0.69983,0.52276 0.730184,2.267428 1.570371,2.210277 1.74139,-0.118468 3.110026,-1.768213 4.672796,-2.634994 0.555612,-0.308166 2.282534,-0.716374 1.681956,-0.889628 -2.111029,-0.609014 -4.349913,-0.338339 -6.52487,-0.507504 0.115413,0.649132 -0.09305,1.503614 0.346239,1.947394 0.73421,0.741712 1.822151,0.875054 2.768414,1.199055 1.746228,0.597898 6.904807,1.318497 7.668194,0.177448 6.063281,-9.062966 4.034344,-9.617458 0.145425,-12.684666 -1.518552,3.584651 -3.560867,6.946827 -4.555642,10.753955 -0.216937,0.830257 0.475681,1.841024 1.158091,2.248925 0.673964,0.40286 1.541654,0.0013 2.286575,-0.189909 4.569303,-1.172328 4.077942,-11.340986 4.31004,-13.490439 0.07264,-0.672645 -0.920988,-0.88122 -1.38148,-1.321829 -1.678554,0.493745 -3.96221,-0.04325 -5.035652,1.481237 -1.767537,2.510233 -1.139232,6.349731 -2.46926,9.177141 -0.258109,0.548695 -1.176982,-0.55069 -1.304915,-1.153887 -0.463202,-2.183983 0.618333,-4.764314 -0.365307,-6.721135 -6.791946,-13.511671 -5.998756,-5.722813 -6.09863,-1.631582 4.302357,3.699965 10.114031,6.794863 6.091488,15.834047 -0.928256,2.085907 -4.66897,0.122785 -6.091198,-1.580327 -1.983144,-2.374806 -1.753036,-6.206045 -2.902564,-9.189659 -1.521283,-3.948506 -1.837113,-3.181365 -5.279327,-4.426265 0.990307,0.02076 2.443474,-0.874774 2.970922,0.06225 3.576696,6.354115 1.920451,14.556535 -6.422421,16.133332 -1.995253,0.377102 -2.294458,-3.767591 -3.054547,-5.8637 -0.893548,-2.464142 -1.016911,-5.215045 -1.863809,-7.699679 -0.234544,-0.688106 -0.880531,-1.095573 -1.320798,-1.643357 1.01559,0.501402 2.781691,0.299178 3.046767,1.504207 0.261652,1.189472 -1.712169,1.685642 -2.092373,2.834461 -1.580197,4.77473 -3.079106,9.65716 -3.710314,14.698954 -0.12328,0.984707 0.706963,2.163364 1.567871,2.413874 0.705385,0.205259 1.726467,-0.630758 1.763989,-1.44436 0.224679,-4.872102 -0.683012,-9.727223 -1.024516,-14.590843 0.39653,-0.994058 2.079499,-2.540278 1.189589,-2.982178 -7.805363,-3.875877 -11.197841,2.581213 -10.558672,11.239099 0.234623,3.178077 2.432204,5.982782 4.580076,8.081792 0.718427,0.702088 2.256466,-0.0087 2.739788,-0.928448 2.195316,-4.177459 3.225235,-8.994008 4.837851,-13.491011 -0.857832,-1.43328 -1.263573,-3.388783 -2.573496,-4.299842 -0.782303,-0.544099 -1.867874,0.201107 -2.706589,0.627503 -1.966178,0.99958 -4.869313,1.341894 -5.619989,3.605636 -1.375782,4.148815 -0.734453,8.930858 0.02263,13.2738 0.189864,1.089147 1.58987,1.726833 2.580931,1.661367 1.758961,-0.116191 3.280824,-1.437957 4.921235,-2.156927 -0.153643,-4.106528 0.236396,-8.284032 -0.460929,-12.319573 -0.150937,-0.873493 -1.14752,-1.669667 -1.937423,-1.560116 -2.148034,0.297911 -5.10929,0.481934 -6.039411,2.666421 -1.47516,3.464577 -0.765683,7.771211 0.0031,11.510662 0.339597,1.651969 1.610246,3.582794 3.123314,3.697502 2.509961,0.190283 4.719498,-1.949358 7.079246,-2.924037 -4.415632,-1.528202 6.309591,3.955113 4.881579,2.701646 -0.781819,-0.686265 -3.698239,-1.112079 -2.727054,-1.349274 2.119275,-0.517592 4.375539,0.937384 6.496527,0.428655 0.802631,-0.192521 0.849626,-1.573718 1.341151,-2.308575 0.126745,-0.189499 0.331849,-0.293832 0.497776,-0.440754 0.110943,0.04923 0.221277,0.100189 0.332831,0.147645 0.547857,0.233061 1.109111,0.42925 1.645362,0.693901 0.719008,0.354835 1.333874,1.247432 2.116167,1.162454 0.59387,-0.0645 0.747564,-1.042435 1.165036,-1.518893 0.138378,-0.15793 0.688167,-0.393979 0.49141,-0.371608 -0.8918,0.101393 -1.754873,0.410008 -2.632307,0.61501 0.355576,-0.302979 0.644449,-0.744675 1.066728,-0.908952 0.400123,-0.155653 0.850362,-0.057 1.271001,-5.22e-4 1.62023,0.217696 3.28095,0.283377 4.84019,0.821556 0.709218,0.244796 -1.602474,-0.369874 -2.225619,0.08088 -0.347354,0.25126 0.614998,0.693379 1.019284,0.791732 0.323922,0.07879 0.636441,-0.20769 0.954663,-0.311534 1.35023,-0.516292 2.798846,-0.783125 4.050687,-1.548874 0.333042,-0.203721 0.797146,-1.174214 0.417597,-1.184359 -1.402115,-0.03751 -3.146262,-0.06967 -4.093812,1.086053 -0.555821,0.677924 0.663288,1.73744 1.256991,2.373981 2.643885,2.834671 5.417025,1.327433 8.960502,1.110572 1.168365,-3.153669 3.552687,-6.04808 3.505087,-9.461008 C 73.39758,71.601049 62.902,79.784395 61.487777,83.67958 c -1.82908,5.037844 3.334387,8.331955 6.458387,8.132022 1.934689,-0.123819 3.797777,-0.864364 5.696665,-1.296549 0.178735,-0.640685 5.894887,-12.141729 -0.378791,-13.126939 -2.337565,-0.367088 -5.434491,0.251118 -6.732371,2.454869 -1.500336,2.547512 -0.656374,6.16277 -0.101598,9.148962 0.129169,0.695282 1.890225,1.100046 1.873783,0.390177 -0.05573,-2.406782 -1.349094,-4.572992 -2.023646,-6.859491 -0.256605,-3.226729 0.293254,-6.046094 -4.381291,-6.585182 -1.015869,-0.117152 -1.185272,1.974069 -2.089715,2.504187 -1.172919,0.687485 -3.128214,-0.233186 -3.873097,0.990789 -0.901148,1.480744 -0.257503,3.605024 7.84e-4,5.372466 0.627101,4.29498 1.760466,8.47825 2.6407,12.717376 2.190273,-0.677672 4.620307,-0.729381 6.570825,-2.033014 5.383765,-3.598246 1.496031,-9.624044 -2.213429,-13.079408 -0.673601,-0.627464 -6.3573,-3.001217 -7.161637,0.344742 -0.09288,0.386386 0.386601,0.673486 0.579903,1.010233 8.659545,2.830626 3.510387,-1.250616 2.570263,-1.309898 -1.831783,-0.115513 -3.662577,0.286611 -5.49717,0.308486 -0.768353,0.0092 -1.531513,-0.288815 -2.297106,-0.215552 -2.276171,0.217816 -0.62109,1.256274 -2.222656,-0.160309 1.078316,0.190303 2.195242,0.198915 3.234945,0.570907 0.175714,0.06289 -0.197009,0.416444 -0.378906,0.450945 -1.487923,0.282233 -3.030207,0.131086 -4.507534,0.475931 -0.593191,0.138458 -1.006459,1.046227 -1.606454,0.951216 -0.491818,-0.07789 -0.389051,-1.254373 -0.87914,-1.344835 -0.365004,-0.06738 -0.361302,0.72167 -0.541953,1.082509 -0.455463,-0.231863 -2.078505,-1.525566 -2.004073,0.646876 0.134523,3.926335 1.323215,7.759773 1.363376,11.688738 0.006,0.586881 -1.232425,-0.478233 -1.254779,-1.064621 -0.137158,-3.59801 0.971502,-7.170012 0.803778,-10.766404 -0.02465,-0.528622 -0.887802,-0.369035 -1.331704,-0.553557 -0.206472,0.09377 -0.582211,0.0357 -0.619416,0.281305 -0.524744,3.463739 -2.228531,7.239814 -1.010637,10.478414 0.799425,2.125808 4.695197,4.258288 5.827596,2.330727 1.939966,-3.30221 0.383823,-7.959196 -0.236202,-11.848372 -0.159008,-0.997398 -1.113874,-1.794809 -1.984057,-2.078441 -1.929989,-0.629072 -4.008411,-0.352031 -6.012615,-0.528045 -0.362747,0.378327 -1.048411,0.582225 -1.088241,1.134967 -0.299738,4.159538 -1.251897,8.630543 0.104373,12.518487 0.580145,1.663075 3.865159,2.717927 4.673705,1.178576 2.218525,-4.223753 3.31639,-12.235945 -1.816749,-14.057408 -1.764788,-0.626223 -3.683277,-0.428634 -5.524916,-0.642949 -0.900143,6.76369 -0.487467,1.89169 0.979942,14.640446 0.942316,0.310717 4.873841,-14.583949 3.931526,-14.894666 v 0 c -1.175061,15.193955 -1.098747,9.602816 -1.124297,16.728234 -0.786626,0.09486 -2.11591,1.125803 -2.359876,0.284593 -0.359266,-1.23878 1.182745,-2.298878 1.404965,-3.577211 0.676923,-3.894046 -0.338071,-8.279668 1.27084,-11.815537 0.556771,-1.223601 3.163605,0.09272 3.45676,1.425799 0.80465,3.659004 -0.441843,7.519615 -0.662765,11.279429 0.2371,0.793993 0.474198,1.587989 0.711293,2.381985 -0.738039,0.09019 -2.139786,1.096205 -2.214116,0.270565 -0.117961,-1.310248 1.720429,-2.007928 1.941249,-3.30146 0.671147,-3.931517 -1.395998,-8.71345 0.668139,-11.984086 1.100852,-1.7443 4.616117,0.64954 5.203326,2.680734 3.320659,11.486387 -5.081628,10.409028 -0.239986,10.794554 2.192041,-3.936389 2.253968,-3.675773 2.13173,-12.004083 -0.01118,-0.761659 -1.514744,-2.163928 -1.609391,-1.409551 -0.462756,3.68848 0.296327,7.442152 0.385418,11.165389 0.02133,0.891108 -0.459273,1.905647 -0.05427,2.673592 0.238453,0.452146 0.936787,-0.0747 1.40518,-0.11205 0.421099,-0.577657 0.758006,-1.24691 1.263299,-1.732967 0.445074,-0.428133 1.327673,-0.348185 1.537472,-0.961194 0.147252,-0.430251 -0.822931,0.05331 -1.234572,0.07616 -1.250136,0.06946 -2.696327,-0.553025 -3.750741,0.200824 -1.983506,1.418117 13.433608,8.978188 6.98482,1.17731 0.669092,-0.447931 1.337639,-0.896887 2.00728,-1.343795 0.177844,-0.118688 0.358304,-0.473497 0.535164,-0.352989 0.271235,0.184817 0.697316,0.997619 0.380204,0.976702 -1.100247,-0.07257 -2.140913,-0.637974 -3.139758,-1.158712 -0.271617,-0.141599 0.5994,-0.006 0.899101,-0.0095 1.707093,-0.236004 3.414186,-0.472011 5.12128,-0.708015 0.519367,0.510024 1.062659,0.99113 1.558099,1.530075 0.446969,0.486208 1.869304,1.368156 1.265053,1.540961 -1.103474,0.315582 -2.78032,0.171468 -3.308137,-0.956666 -0.07091,-0.151556 -4.312655,-12.660117 -0.111091,-14.819569 1.206066,-0.619875 2.464592,1.10336 3.696887,1.655043 0.460628,3.535158 0.738505,7.106157 1.381884,10.605485 0.193565,1.052805 0.36419,2.302094 1.114801,2.973924 1.592346,1.42523 3.955392,-1.491579 4.734341,-2.041381 4.98559,-3.518947 1.811018,0.259138 5.907183,-6.823309 -0.170011,-2.938555 -0.252916,-5.885039 -0.510038,-8.81568 -0.0098,-0.111909 -0.231001,0.08381 -0.246312,0.194938 -0.395819,2.873205 0.727766,6.453388 -0.972632,8.653183 -1.402335,1.814185 -4.27702,1.29494 -6.38796,0.869145 -0.942281,-0.190069 -1.938358,-1.461311 -1.782894,-2.517296 0.446769,-3.034721 2.261248,-5.607847 3.391872,-8.411763 10.042177,-6.283218 2.845316,-2.326695 2.334445,-0.531591 -0.508959,1.788375 0.818956,4.120754 -0.183484,5.626254 -0.819473,1.230707 -11.564339,13.576409 -9.811894,0.724216 0.442837,-3.247703 2.607989,-5.888421 3.911981,-8.832633 1.387807,-0.616371 3.118922,-3.042035 4.163414,-1.849114 0.963524,1.100443 -1.802513,2.388996 -2.960577,3.22289 -0.387452,0.278997 -0.920912,-0.1435 -1.379963,-0.09735 -2.030472,0.204106 -4.031785,0.759134 -6.068965,0.846138 -0.186495,0.008 0.116674,-0.396277 0.175014,-0.594417 1.035512,0.112564 2.071024,0.225128 3.106537,0.337692 -0.13191,-0.512189 -0.107222,-1.112191 -0.395724,-1.536569 -1.365009,-2.007862 -5.704917,-0.700374 -6.521552,-0.234325 -0.768995,0.438863 1.578487,0.971979 2.44191,0.965918 0.748229,-0.0052 -2.848089,-3.456357 -2.198919,-0.504305 -1.661279,-0.03477 -3.333451,-0.31941 -4.983842,-0.104313 -0.513767,0.06696 -0.825515,1.119313 -1.312656,0.924949 -0.574561,-0.229241 -0.368441,-1.415521 -0.873886,-1.797352 -0.503082,-0.380048 -1.207738,-0.316833 -1.809981,-0.230139 -1.799145,0.258989 -2.416843,1.137312 -3.781763,2.324567 -0.232889,0.139377 -0.566098,0.673522 -0.698663,0.418126 -0.387907,-0.747324 -0.976181,-1.964809 -0.408634,-2.551392 0.764082,-0.789711 4.153064,-0.317277 3.114373,-0.2451 -2.284283,0.15873 -4.567474,0.336509 -6.851212,0.504762 -0.822256,0.171011 -1.633522,0.432322 -2.466769,0.51303 -0.519685,0.05034 -1.040686,-0.08193 -1.561029,-0.122894 1.46716,-0.122811 3.190864,-1.302918 4.401482,-0.368438 0.777124,0.599867 -0.84039,1.90421 -1.095011,2.920715 -0.815078,3.254015 -0.52201,6.982281 -2.106414,9.860223 -0.895404,1.62643 -3.003215,1.900743 -4.649566,2.411474 -0.48868,0.151604 0.895614,-0.725581 1.00179,-1.279862 0.772808,-4.03433 1.059854,-8.166055 1.589781,-12.249081 1.071908,-0.226708 2.128627,-0.577971 3.215721,-0.680121 0.186289,-0.01749 -0.398424,0.209547 -0.418511,0.417283 -0.428033,4.426716 0.588108,9.192911 -0.909666,13.318713 -0.748869,2.062854 -3.249471,2.725664 -5.152901,3.38138 -2.04895,0.70585 7.084388,-5.377643 4.148449,-5.494147 1.854658,-4.517199 4.12483,-8.848962 5.563973,-13.551602 0.149224,-0.487606 -1.351684,-0.638702 -1.378764,-0.124252 -0.123857,2.353085 1.390911,4.659341 1.017935,6.979338 -0.582509,3.623349 -2.149673,7.005384 -3.780404,10.203897 -1.211319,2.375883 -13.20464,6.569757 5.478878,-1.363349 0.643749,-5.248089 1.595678,-10.460382 1.931247,-15.74427 0.03336,-0.525151 -0.400494,-1.413296 -0.851297,-1.260648 -4.880736,1.652708 -8.004771,15.946194 -8.116801,16.396282 -0.283419,1.138645 -0.09582,3.241935 0.954227,3.381453 2.985432,0.396662 5.883243,-1.388102 8.824866,-2.082157 1.743991,-0.435781 3.800271,-0.112031 5.231975,-1.307351 2.364934,-1.974477 4.914003,-4.484179 5.560619,-7.703346 0.611202,-3.04286 0.570451,-8.657238 -2.200114,-9.026856 -4.057406,-0.541297 -8.21977,3.45163 -10.343531,7.353412 -5.028234,9.23788 8.505716,13.449798 11.454376,15.205484 1.622624,-1.997301 3.13146,-4.117944 4.86787,-5.99191 1.706984,-1.842205 4.828373,-2.569554 5.439651,-5.132152 0.940656,-3.943424 0.873011,-8.888369 -1.316041,-12.154824 -1.515828,-2.261801 -5.891695,-3.196216 -7.527775,-1.041647 -8.502754,11.197355 0.7356,13.792904 6.098369,17.221719 1.772953,0.180255 3.674257,1.302651 5.318853,0.540772 3.933525,-1.822243 7.506767,-11.031796 8.031361,-14.499994 0.153817,-1.016904 -1.170696,-3.174388 -1.763978,-2.384484 -9.541037,12.703068 3.099704,5.700486 -6.602788,10.113172 4.982743,-2.253202 1.723225,-0.390898 6.059148,-13.175622 0.282859,-0.834046 0.879865,-1.947878 0.378856,-2.642152 -0.759334,-1.052243 -4.099903,2.061541 -4.106987,2.074174 -1.858017,3.313008 -3.133886,6.991826 -4.700832,10.487741 -3.984926,-2.12814 -3.841384,-1.486131 1.291293,-11.69581 0.587579,-1.168787 2.464454,-0.289129 3.488313,-0.987555 0.360142,-0.245672 -0.801601,-0.895446 -1.140249,-0.614175 -1.163213,0.966114 -1.117613,3.110734 -2.205342,4.187743 -2.206201,-0.430921 -4.589711,-0.23269 -6.618605,-1.292767 -0.555879,-0.290443 0.698809,-1.204615 1.246366,-1.51418 0.828536,-0.468415 1.782483,-0.780929 2.709499,-0.722289 0.360104,0.02277 -0.639887,0.470638 -0.774361,0.844698 -0.132286,0.367965 0.0289,0.792457 0.04335,1.188688 -2.011573,4.00261 -4.023148,8.00522 -6.034721,12.00783 -2.010468,-3.542826 -3.242066,-5.258689 -0.607027,-11.740255 0.763371,-1.877716 3.650094,-1.045164 5.168005,-2.21798 0.36689,-0.283479 -0.05996,-1.349622 -0.504857,-1.385006 -4.928116,-0.391939 -6.87455,24.910336 -4.53192,15.77264 -1.496984,-0.02196 -3.663086,1.32837 -4.490951,-0.06584 -1.562794,-2.631863 0.593444,-14.869041 1.79611,-16.684117 0.737078,-1.112408 3.152007,-1.118103 3.714037,0.1154 0.503348,1.104708 -1.939601,1.318832 -2.610881,2.305726 -2.963222,4.356425 -5.476524,9.073194 -8.214788,13.609788 0.04858,-0.367336 0.0981,-0.734526 0.145725,-1.102021 0.477668,-3.6862 0.134247,-7.627564 1.430151,-11.059069 0.8553,-2.264806 3.88817,-2.891016 4.70076,-5.175387 0.385742,-1.084415 -2.05741,0.84916 -3.082029,0.624761 -9.808711,-2.148184 -1.340869,-11.847009 -9.507043,13.830121 -2.849227,2.224861 -5.98498,4.050251 -8.547679,6.674588 -0.732507,0.750125 2.423219,0.119526 2.877468,-0.867998 1.889224,-4.107131 1.309409,-9.42077 3.617262,-13.251385 1.540104,-2.556291 5.874891,-1.90595 7.158079,-4.633722 1.569058,-3.335472 -2.898859,-26.493907 -10.114854,0.0044 -0.769267,0.417202 -1.541729,0.827124 -2.307802,1.251603 -0.205474,0.113854 -0.565749,0.110924 -0.606447,0.363184 -0.289353,1.793485 -0.02256,3.665357 -0.332172,5.454614 -0.126587,0.731548 -0.7623,1.251558 -0.951864,1.965906 -0.04452,0.167754 0.306192,-0.07314 0.459288,-0.109708 -2.402757,0.780772 -4.805514,1.561542 -7.208272,2.342311 -0.125396,-0.0086 -0.434339,-0.150156 -0.376188,-0.02569 0.227315,0.486556 0.473163,1.133011 0.951531,1.25718 1.551706,0.402769 3.211468,0.572268 4.774607,0.229129 0.723276,-0.158774 1.097795,-1.099796 1.654046,-1.640339 0.929377,-0.903133 1.600908,-2.389899 2.802702,-2.690563 0.817652,-0.204561 -0.929155,1.558711 -1.393733,2.338068 -1.542412,0.495487 -3.072804,1.040359 -4.627235,1.486466 -0.246703,0.0708 0.43981,-0.37746 0.693898,-0.357638 0.364411,0.02844 0.669556,0.326756 1.004333,0.490131 1.75406,0.0083 3.50812,0.01653 5.26218,0.02481 4.021039,-1.056949 -0.496538,-2.232763 1.842776,-1.488565 -2.191491,-0.923294 -8.907059,-2.535228 -6.574473,-2.76988 2.40852,-0.242292 4.552001,1.826701 6.826561,2.744518 0.100286,0.04047 0.213571,0.05732 0.297865,0.130295 0.286269,0.247831 2.962532,3.32151 3.937827,2.22003 0.757334,-0.85532 0.369556,-2.371006 0.554332,-3.556508 -1.712456,-2.838064 -3.755225,-5.459432 -5.137369,-8.514192 -0.232851,-0.514633 0.431924,-2.1757 0.554164,-1.615421 0.75371,3.454607 -0.06772,7.395537 1.395754,10.552823 0.947087,2.043238 3.505595,2.416851 5.212456,3.70367 4.861567,3.665193 2.857906,4.676127 5.605655,-0.906335 -4.361044,-4.256128 -4.856964,-3.52183 -1.122399,-14.477527 0.464138,-1.361584 3.142612,-3.047738 3.608029,-1.6867 1.489459,4.355691 0.360239,9.317524 0.593433,13.973217 0.04863,0.970798 -0.295674,2.147782 0.251887,2.903331 0.690065,0.952183 1.986575,1.03732 2.97986,1.555982 -5.973425,-9.911668 -2.100809,-1.354627 -3.025358,-19.304826 -0.01906,-0.370125 -0.908754,0.278953 -0.816865,0.635182 1.174405,4.552865 2.914437,8.899418 4.41898,13.329289 0.653569,1.924315 0.79948,4.22597 2.054888,5.731877 1.09505,1.313562 2.966005,1.379879 4.449009,2.069813 1.111704,-0.941617 3.251727,-1.268618 3.335113,-2.824845 0.266543,-4.974612 -8.05666,-7.713757 -5.209483,-13.77017 0.1215,-1.676735 1.772708,-2.98018 3.176642,-3.586502 5.650298,-2.440215 5.811034,2.216585 7.956342,6.545588 -0.385157,1.372907 -0.497369,2.882128 -1.155463,4.118726 -0.15412,0.289599 -0.418243,-0.503501 -0.685498,-0.659426 -1.235384,-0.720764 -3.36173,-0.476072 -3.796905,-1.955753 -1.177279,-4.002997 -1.479456,-8.562387 -0.492515,-12.629152 0.339252,-1.397913 2.753617,-1.830822 3.791095,-0.962876 0.943271,0.789136 -0.153101,2.628246 -0.229645,3.942369 -0.55514,3.543873 -0.05969,7.51341 -1.665408,10.631618 -0.727896,1.413557 -3.35106,2.187516 -4.295419,0.94415 -0.893939,-1.176989 1.306705,-2.723218 1.875675,-4.130051 1.698049,-4.198572 3.801091,-8.246747 4.923056,-12.68042 0.388051,-1.533464 0.89812,-4.973614 -0.513131,-4.746334 -2.228955,0.358974 -3.044595,3.709649 -4.566893,5.564471 -0.9915,4.713945 -1.335318,9.659331 -2.974497,14.141828 -0.364506,0.996773 -2.652363,2.341713 -2.659515,1.264925 -0.03341,-5.032241 1.017099,-10.097663 2.569487,-14.821467 0.526629,-1.602485 3.310587,-1.704562 3.421044,-3.407256 0.507523,-7.823594 -7.605972,-1.454169 -8.198667,-1.153894 -1.551772,5.642569 -3.103545,11.285139 -4.655317,16.927709 -1.538291,1.612642 -3.721531,2.702575 -4.614877,4.837927 -0.580192,1.386831 3.086006,-0.865512 3.554792,-2.30401 1.613723,-4.951831 1.520624,-10.402225 2.280935,-15.603339 -0.255404,-1.445633 -0.942902,-2.876641 -0.766215,-4.336897 0.07075,-0.584737 0.928609,-0.561667 1.392911,-0.842503 -10.330187,5.275993 -6.771299,1.719432 -12.528255,20.854738 -0.20784,0.690833 0.390171,2.541856 0.81422,1.988155 1.252429,-1.635356 1.866553,-3.844405 2.226868,-5.959047 3.039233,-17.836842 -2.336132,-11.092643 3.785149,-17.486933 -10.961636,4.159778 -4.53617,0.190999 -13.874175,19.117525 -3.833959,1.581424 -0.827729,-9.308618 0.300188,-13.698864 0.438266,-1.705896 3.237434,-1.364227 3.973731,-2.936736 1.055683,-2.254629 -11.23162,2.579827 -6.551962,2.15717 -5.185293,2.290207 -15.580819,3.768243 -2.43551,13.555041 2.32188,1.728661 3.131324,-5.337582 3.135364,-6.705992 6.53e-4,-0.212761 -0.210839,-0.387514 -0.195772,-0.599609 0.0063,-0.08917 0.156106,0.03952 0.234158,0.05928 -2.894695,2.265911 -5.762843,4.574792 -8.684087,6.797736 -0.190923,0.145284 0.252449,-0.584387 0.482054,-0.556333 0.4385,0.05358 0.701597,0.823825 1.138303,0.754319 2.42604,-0.386143 5.439949,-0.06872 7.114918,-2.067941 0.408808,-0.487948 1.194137,-20.639211 -1.313105,1.366692 -1.691498,4.984702 0.960295,-0.931258 -3.189571,1.569918 -0.439157,0.264685 0.310604,1.299811 0.79882,1.414811 0.755671,0.177999 1.487973,-0.462991 2.230223,-0.701312 6.659985,-2.138405 4.075183,-0.927711 8.294547,-3.208452 -0.444411,0.662583 -1.042972,1.225855 -1.333232,1.987757 -0.284364,0.74642 1.294603,1.118613 1.342862,1.146534 0.793059,0.458815 1.457686,1.746389 2.321687,1.494072 1.053594,-0.30769 1.038549,-2.5674 2.109457,-2.788127 1.491822,-0.307487 2.907272,0.96966 4.360909,1.454492 1.115683,-4.047708 2.740326,-7.962326 3.34705,-12.143123 0.194947,-1.343334 -0.166024,-2.946915 -1.01571,-3.921659 -0.485073,-0.556464 -0.300023,1.518065 -0.410955,2.285018 -0.09928,0.68643 -6.21728,15.361136 0.794697,14.395764 1.622585,-0.223389 3.069582,-1.258873 4.604374,-1.88831 3.485185,-5.664239 6.93135,-9.036398 3.078643,-17.691185 -0.857976,-1.927375 -4.864601,-2.916637 -5.71095,-0.982848 -8.157931,18.639782 -2.200577,15.696307 6.500328,17.78112 2.086438,0.499926 4.123803,1.22815 6.185702,1.842225 1.262727,-2.391059 3.109373,-4.502338 3.788189,-7.173177 0.927766,-3.650358 0.101462,-7.654372 0.916632,-11.338157 0.318193,-1.437926 0.800814,2.921639 0.621069,4.389207 -0.326781,2.668092 -2.726286,5.126698 -2.105235,7.728672 2.441236,10.227901 7.3804,1.159822 8.915741,-0.675104 1.460595,-1.845657 3.264996,-3.412494 4.381794,-5.536973 0.331204,-0.630051 0.293343,-1.96072 -0.335705,-2.159904 -2.418274,-0.765731 -5.025301,-0.495667 -7.534488,-0.332143 -0.525044,0.03422 1.048502,0.332649 1.436437,0.729558 3.502961,3.583983 -0.330807,15.124455 2.502378,-11.613348 1.155178,-1.033114 2.933865,-1.556227 3.465531,-3.099344 0.276893,-0.803649 -1.53343,-0.41259 -2.296535,-0.293545 -1.178093,0.183782 -2.756851,0.0707 -3.407844,1.183429 -2.492758,4.260847 -3.925673,9.206111 -5.471944,13.994686 -0.263457,0.815871 -0.564824,2.178032 0.113682,2.599039 0.756091,0.469143 1.618579,-0.681354 2.427875,-1.022033 1.826198,-5.697863 4.209546,-11.209721 5.478597,-17.093593 0.173865,-0.806104 -0.634015,-2.076783 -1.368709,-1.961599 -1.797533,0.281815 -3.66441,1.320503 -4.775372,2.924862 -3.108647,4.489256 -5.349202,9.680542 -7.510657,14.817596 -0.283212,0.673107 -0.297367,2.03292 0.351834,2.196551 0.773925,0.195064 1.251831,-1.089728 1.877747,-1.634596 1.578601,-4.801352 3.5388,-9.466844 4.735812,-14.404061 0.112357,-0.463437 -0.8537,0.108735 -1.281261,0.155366 -0.945594,0.103131 -2.287581,-0.571555 -2.838096,0.293907 -2.510109,3.946147 -3.961764,8.62092 -5.664489,13.073013 -0.245644,0.642275 -0.426759,1.472534 -0.134706,2.090061 0.30508,0.645067 1.111171,0.766235 1.666757,1.149351 1.93977,-5.261441 4.249506,-10.370933 5.819316,-15.784321 0.224734,-0.774986 0.135947,-2.10976 -0.556695,-2.363501 -1.101017,-0.403343 -2.218403,0.962509 -3.376503,0.922623 -2.480669,-0.08544 -4.903484,-0.861492 -7.355224,-1.292238 -0.577467,0.316471 -1.106821,0.782524 -1.7324,0.949415 -0.599086,0.159822 -1.23183,0.0038 -1.847745,0.0057 0.797679,-0.810669 2.769422,-1.302808 2.393041,-2.432004 -0.364175,-1.092577 -2.078621,0.238642 -3.121771,0.245711 -1.288932,0.0087 -2.623017,0.195766 -3.862795,-0.198384 -3.500149,-1.112765 -6.588361,-4.089612 -10.223371,-4.279893 -2.902343,-0.151928 -3.947356,6.444906 -7.715329,4.533504 0.846976,1.0644 2.072591,1.868399 2.540927,3.193199 0.179196,0.506897 -1.072935,0.203454 -1.458252,-0.130592 -0.810645,-0.702669 -0.950265,-2.206122 -1.856577,-2.743051 -2.814806,-1.667584 -5.790066,-3.78013 -8.974416,-3.67352 -2.928548,0.09805 -3.163828,6.705707 -6.317596,6.83021 -0.885667,0.354936 3.605366,14.35419 4.491033,13.999253 z" />
  </g>
</svg>
